<?xml version="1.0" encoding="utf-8"?>
<!DOCTYPE svg PUBLIC "-//W3C//DTD SVG 1.1//EN" "http://www.w3.org/Graphics/SVG/1.1/DTD/svg11.dtd">
<svg version="1.1" xmlns="http://www.w3.org/2000/svg" xmlns:xlink="http://www.w3.org/1999/xlink" xmlns:xml="http://www.w3.org/XML/1998/namespace" viewBox="0, 0, 83.75884, 44.38" id="Layer_1" data-name="Layer 1">
  <title>Rating Icon - 39548 - Persona 3 Reload</title>
  <defs>
    <style>.cls-1{fill:#231f20;}.cls-2{fill:#fff;}</style>
  </defs>
  <rect x="0" y="0" width="83.75884" height="44.38" id="area_back" class="cls-1" style="fill:#231F20;" />
  <rect x="1.37" y="1.58" width="26.19" height="7.36" class="cls-2" style="fill:white;" />
  <rect x="1.36" y="10.54" width="26.21" height="27.05" class="cls-2" style="fill:white;" />
  <rect x="29.16" y="1.57" width="53.03884" height="41.22" id="area_right" class="cls-2" style="fill:white;" />
  <polygon points="1.36,42.78 1.36,39.19 6.63,39.19 6.63,40.03 3.48,40.03 3.48,40.54 6.14,40.54 6.14,41.38 3.48,41.38 3.48,41.94 6.75,41.94 6.75,42.78 1.36,42.78" class="cls-2" style="fill:white;" />
  <path d="M647 402.17 a0.41 0.41 0 0 0 -0.31 -0.24 a1.79 1.79 0 0 0 -0.55 -0.07 c-0.46 0 -0.67 0.07 -0.67 0.21 c0 0.53 3.71 0.2 3.71 1.5 c0 0.84 -1.25 1.24 -3 1.24 s-2.81 -0.55 -2.86 -1.2 h2 a0.49 0.49 0 0 0 0.35 0.28 a1.89 1.89 0 0 0 0.6 0.09 c0.53 0 0.88 -0.09 0.88 -0.26 c0 -0.55 -3.71 -0.17 -3.71 -1.54 c0 -0.76 1.18 -1.15 2.79 -1.15 c1.79 0 2.61 0.51 2.77 1.14 Z" transform="translate(-635.75, -361.93)" class="cls-2" style="fill:white;" />
  <path d="M652.32 402.68 h0.83 c0.65 0 1 -0.1 1 -0.34 s-0.36 -0.38 -0.85 -0.38 h-1 Z m0 0.78 v1.25 H650.2 v-3.59 h3 c2.15 0 2.86 0.33 2.86 1 c0 0.41 -0.33 0.76 -1.09 0.88 c0.68 0.14 1.1 0.22 1.1 1 c0 0.46 0 0.63 0.22 0.63 v0.1 H654.2 a1.24 1.24 0 0 1 -0.11 -0.62 c0 -0.47 -0.14 -0.63 -1.13 -0.63 Z" transform="translate(-635.75, -361.93)" class="cls-2" style="fill:white;" />
  <path d="M659.52 402 v0.6 h0.88 c0.42 0 0.73 -0.1 0.73 -0.31 s-0.42 -0.29 -0.87 -0.29 Z m0 1.25 v0.67 h0.92 c0.52 0 0.92 -0.06 0.92 -0.33 s-0.49 -0.34 -1.17 -0.34 Z m-2.12 1.5 v-3.59 h3.09 c1.45 0 2.61 0.2 2.61 0.91 c0 0.37 -0.44 0.64 -0.85 0.78 c0.7 0.1 1.08 0.44 1.08 0.82 c0 0.8 -1.1 1.08 -2.78 1.08 Z" transform="translate(-635.75, -361.93)" class="cls-2" style="fill:white;" />
  <polygon points="2.31,17.24 10.34,15.07 14.93,25.87 14.96,25.86 13.58,14.21 21.62,12.04 26.63,30.89 21.73,32.2 18.15,18.73 18.11,18.75 19.63,32.77 14.33,34.2 8.68,21.29 8.64,21.3 12.21,34.77 7.32,36.09 2.31,17.24" class="cls-1" style="fill:#231F20;" />
  <path d="M637.82 369.27 V365.1 H639 l0.55 2.84 h0 l0.59 -2.84 h1.14 v4.17 h-0.72 v-3.22 h0 l-0.67 3.22 h-0.7 l-0.65 -3.22 h0 v3.22 Z" transform="translate(-635.75, -361.93)" class="cls-1" style="fill:#231F20;" />
  <path d="M641.62 369.27 l1 -4.17 h1 l1 4.17 h-0.78 l-0.19 -0.92 h-1 l-0.2 0.92 Z M643 365.9 h0 l-0.34 1.81 h0.7 Z" transform="translate(-635.75, -361.93)" class="cls-1" style="fill:#231F20;" />
  <path d="M646.67 365.1 v0.69 h-0.82 v3.48 h-0.74 v-3.48 h-0.82 v-0.69 Z" transform="translate(-635.75, -361.93)" class="cls-1" style="fill:#231F20;" />
  <path d="M649.38 365.1 v3 a1.82 1.82 0 0 1 -0.06 0.46 a1 1 0 0 1 -0.2 0.41 a1.07 1.07 0 0 1 -0.36 0.3 a1.41 1.41 0 0 1 -0.57 0.11 a1.12 1.12 0 0 1 -0.9 -0.35 a1.37 1.37 0 0 1 -0.3 -0.93 v-3 h0.74 V368 a1 1 0 0 0 0.12 0.55 a0.39 0.39 0 0 0 0.33 0.16 a0.4 0.4 0 0 0 0.36 -0.18 a1.07 1.07 0 0 0 0.11 -0.53 v-2.9 Z" transform="translate(-635.75, -361.93)" class="cls-1" style="fill:#231F20;" />
  <path d="M650.7 369.27 H650 V365.1 h1.36 a0.75 0.75 0 0 1 0.6 0.28 a1.24 1.24 0 0 1 0.22 0.81 a1.42 1.42 0 0 1 -0.15 0.68 a0.68 0.68 0 0 1 -0.5 0.34 v0 l0.16 0 a0.72 0.72 0 0 1 0.22 0.1 a0.94 0.94 0 0 1 0.18 0.24 a1.1 1.1 0 0 1 0.08 0.45 v0.27 c0 0.12 0 0.25 0 0.37 a3.27 3.27 0 0 0 0 0.35 a0.8 0.8 0 0 0 0 0.23 h-0.72 a1.1 1.1 0 0 1 -0.08 -0.4 v-0.76 a0.84 0.84 0 0 0 0 -0.29 a0.35 0.35 0 0 0 -0.16 -0.2 a0.56 0.56 0 0 0 -0.32 -0.08 h-0.19 Z m0 -2.37 H651 a0.35 0.35 0 0 0 0.18 0 a0.44 0.44 0 0 0 0.12 -0.15 a0.66 0.66 0 0 0 0.06 -0.2 a1.49 1.49 0 0 0 0 -0.21 a0.72 0.72 0 0 0 -0.1 -0.42 a0.33 0.33 0 0 0 -0.28 -0.13 h-0.33 Z" transform="translate(-635.75, -361.93)" class="cls-1" style="fill:#231F20;" />
  <path d="M652.69 369.27 V365.1 h1.92 v0.64 h-1.18 v1 h1.09 v0.64 h-1.09 v1.22 h1.22 v0.64 Z" transform="translate(-635.75, -361.93)" class="cls-1" style="fill:#231F20;" />
  <path d="M656.14 365.73 l0.36 -0.28 a2.2 2.2 0 0 0 0.3 -0.37 h0.65 v4.19 h-0.74 v-3.22 a3.2 3.2 0 0 1 -0.27 0.25 l-0.3 0.21 Z" transform="translate(-635.75, -361.93)" class="cls-1" style="fill:#231F20;" />
  <path d="M660 365.88 l-0.83 3.39 h-0.76 l0.93 -3.54 h-1.17 v-0.65 H660 Z" transform="translate(-635.75, -361.93)" class="cls-1" style="fill:#231F20;" />
  <path d="M661.17 365.91 h0.55 v1.14 h0.82 v0.64 h-0.82 v1.14 h-0.55 v-1.14 h-0.82 v-0.64 h0.82 Z" transform="translate(-635.75, -361.93)" class="cls-1" style="fill:#231F20;" />
  <text x="31.16px" y="8.915" font-family="Arial" font-size="6.2px" font="Arial" p4:space="preserve" style="font-family:Arial;font-size:6.2px;fill:#231f20;" xmlns:p4="xml">Violence</text>
  <text x="31.16px" y="16.715" font-family="Arial" font-size="6.2px" font="Arial" p4:space="preserve" style="font-family:Arial;font-size:6.2px;fill:#231f20;" xmlns:p4="xml">Blood</text>
  <text x="31.16px" y="24.515" font-family="Arial" font-size="6.2px" font="Arial" p4:space="preserve" style="font-family:Arial;font-size:6.2px;fill:#231f20;" xmlns:p4="xml">Sexual Themes</text>
  <text x="31.16px" y="32.315" font-family="Arial" font-size="6.2px" font="Arial" p4:space="preserve" style="font-family:Arial;font-size:6.2px;fill:#231f20;" xmlns:p4="xml">Partial Nudity</text>
  <text x="31.16px" y="40.115" font-family="Arial" font-size="6.2px" font="Arial" p4:space="preserve" style="font-family:Arial;font-size:6.2px;fill:#231f20;" xmlns:p4="xml">Strong Language</text>
</svg>